<svg width="72" height="72" viewBox="0 0 72 72" fill="none" xmlns="http://www.w3.org/2000/svg">
  <defs>
    <linearGradient id="jncIcon" x1="0" y1="0" x2="1" y2="1">
      <stop offset="0" stop-color="#4ade80"/>
      <stop offset="1" stop-color="#16a34a"/>
    </linearGradient>
  </defs>
  <g transform="translate(4,4)">
    <path d="M32 2 L60 13 V34 C60 50 48 60 32 64 C16 60 4 50 4 34 V13 Z" fill="#0b0f0c" stroke="url(#jncIcon)" stroke-width="2.5"/>
    <rect x="24" y="28" width="16" height="13" rx="2.5" fill="none" stroke="#4ade80" stroke-width="2.4"/>
    <path d="M27 28 V23 a5 5 0 0 1 10 0 V28" fill="none" stroke="#4ade80" stroke-width="2.4"/>
    <circle cx="32" cy="34" r="2.4" fill="#22c55e"/>
    <path d="M14 18 h6 M52 18 h-6 M14 46 h6 M52 46 h-6" stroke="#22c55e" stroke-width="1.6" stroke-opacity="0.7"/>
    <circle cx="13" cy="18" r="1.8" fill="#4ade80"/>
    <circle cx="53" cy="18" r="1.8" fill="#4ade80"/>
    <circle cx="13" cy="46" r="1.8" fill="#4ade80"/>
    <circle cx="53" cy="46" r="1.8" fill="#4ade80"/>
  </g>
</svg>
